<?xml version="1.0" standalone="no"?>
<!DOCTYPE svg PUBLIC "-//W3C//DTD SVG 20010904//EN"
 "http://www.w3.org/TR/2001/REC-SVG-20010904/DTD/svg10.dtd">
<svg version="1.0" xmlns="http://www.w3.org/2000/svg"
 width="600.000000pt" height="776.000000pt" viewBox="0 0 600.000000 776.000000"
 preserveAspectRatio="xMidYMid meet">

<g transform="translate(0.000000,776.000000) scale(0.100000,-0.100000)"
fill="#3a3a3c" stroke="none">
<path d="M3224 7216 c-18 -8 -35 -19 -39 -25 -5 -9 -11 -9 -19 -1 -7 5 -24 10
-37 10 -13 0 -112 -2 -219 -3 l-195 -3 -96 -43 c-62 -27 -101 -51 -109 -66
-10 -20 -17 -21 -47 -15 -46 11 -96 2 -158 -27 -27 -12 -58 -23 -68 -23 -24 0
-80 -29 -179 -94 -100 -64 -112 -77 -177 -185 -61 -101 -94 -201 -97 -296 l-1
-69 -117 -111 c-114 -109 -116 -112 -116 -155 0 -24 -7 -85 -16 -136 -18 -99
-17 -113 26 -229 22 -60 22 -61 6 -190 -21 -166 -19 -231 10 -330 12 -44 28
-115 35 -157 6 -43 15 -78 18 -78 3 0 17 59 29 132 33 183 75 351 127 503 24
72 53 162 64 200 11 39 34 92 51 118 66 105 73 125 67 202 -5 58 -3 77 14 111
22 46 82 94 118 94 27 0 61 17 61 30 0 5 -11 12 -24 16 -14 3 -32 14 -42 25
-16 18 -15 18 17 9 65 -19 116 -5 198 55 32 23 42 25 152 25 78 0 120 -4 125
-12 5 -8 11 -5 20 7 8 10 15 17 16 14 2 -2 12 -22 23 -43 29 -58 41 -55 48 10
8 81 23 88 30 14 5 -62 26 -106 54 -117 8 -3 46 0 85 7 67 13 71 13 114 -10
l43 -24 24 22 c20 19 26 21 36 8 6 -7 33 -19 59 -26 45 -11 47 -11 69 17 l23
28 16 -24 c13 -19 22 -22 47 -17 17 4 41 16 54 28 l23 22 16 -22 15 -23 37 29
c30 24 130 90 190 126 28 17 8 -4 -44 -48 -61 -50 -60 -51 15 -35 41 8 58 19
90 55 35 40 106 82 118 70 2 -2 -25 -27 -61 -54 -59 -45 -64 -50 -43 -56 40
-11 96 -6 139 11 30 12 43 13 46 5 5 -17 34 -15 83 8 57 25 86 25 35 0 -36
-18 -55 -36 -56 -50 0 -4 16 -12 36 -19 19 -7 58 -33 85 -57 28 -24 91 -64
142 -88 51 -23 103 -53 117 -64 l25 -22 -32 6 c-18 4 -44 3 -58 0 -25 -6 -23
-9 54 -82 60 -57 89 -93 116 -146 55 -110 44 -125 -21 -29 -57 82 -193 236
-201 227 -13 -13 53 -295 96 -406 17 -45 18 -50 3 -30 -9 13 -27 36 -39 50
l-22 25 -1 -58 c0 -64 16 -112 49 -141 30 -27 26 -39 -9 -21 -47 24 -53 18
-28 -27 17 -31 48 -60 112 -104 49 -33 102 -78 117 -100 36 -50 36 -60 2 -28
-31 29 -63 48 -63 38 0 -3 18 -31 40 -63 48 -69 52 -91 13 -66 -16 9 -40 31
-54 48 l-27 31 8 -50 c4 -27 11 -87 15 -134 9 -120 8 -119 55 -113 45 6 53 -8
15 -25 -46 -21 -51 -52 -20 -120 21 -46 26 -70 21 -96 -8 -40 8 -117 31 -152
8 -14 17 -23 19 -22 1 2 8 50 14 107 15 135 21 151 61 151 22 0 32 -5 36 -20
3 -11 6 -20 7 -20 1 0 19 9 41 20 23 12 59 20 87 20 26 0 49 4 53 9 10 18 8
111 -4 125 -16 19 -7 51 50 182 67 152 83 220 76 316 -4 42 -15 104 -27 137
-24 73 -24 81 -3 140 24 68 14 85 -43 76 -31 -4 -60 -1 -97 11 -59 20 -51 30
12 15 39 -8 42 -7 55 18 8 14 22 52 31 84 20 69 11 137 -35 276 -54 164 -125
309 -180 367 -28 30 -62 79 -75 109 -25 57 -50 79 -100 91 -41 9 -53 20 -61
57 -13 62 -34 77 -130 92 -23 3 -66 24 -100 46 -53 37 -64 40 -119 39 -33 -1
-65 -1 -72 -1 -6 1 -17 17 -23 36 -18 54 -47 68 -103 53 -40 -10 -51 -10 -82
5 -22 10 -62 17 -103 18 -90 1 -146 18 -150 46 -7 49 -90 30 -140 -33 l-26
-33 -18 29 c-34 57 -100 80 -154 56z m-744 -189 c0 -20 -23 -44 -47 -50 -45
-10 -35 34 12 53 29 12 35 12 35 -3z m694 -74 c14 -43 16 -71 11 -122 -5 -49
-9 -61 -17 -48 -5 9 -7 21 -4 25 5 8 -9 137 -19 180 -11 47 12 19 29 -35z
m-1339 -652 c-6 -16 -27 -96 -40 -156 l-6 -30 31 35 c19 22 29 28 26 16 -4
-10 -11 -50 -16 -88 -6 -38 -16 -81 -24 -96 -21 -40 -136 -187 -136 -173 0 26
62 170 95 220 20 29 34 55 33 57 -2 1 -22 -6 -46 -16 -23 -11 -42 -15 -42 -11
0 5 16 43 36 85 20 42 34 79 31 82 -2 3 -36 -22 -73 -55 -68 -59 -94 -73 -94
-49 0 7 46 58 103 113 74 74 106 98 115 91 7 -5 10 -16 7 -25z m-194 -808
c-16 -32 -30 -51 -31 -42 0 25 27 108 42 126 27 34 20 -24 -11 -84z"/>
<path d="M2070 5730 c-117 -20 -188 -77 -221 -179 -12 -36 -30 -83 -40 -103
-24 -48 -24 -58 2 -58 11 0 17 -4 14 -10 -13 -21 42 -9 63 13 31 33 27 43 -15
40 l-38 -3 30 11 c17 7 38 19 48 28 18 15 17 16 -15 27 l-33 12 32 1 c22 1 46
13 79 42 46 40 50 41 101 35 105 -12 198 -50 272 -110 88 -72 153 -142 170
-183 14 -34 8 -83 -9 -83 -6 0 -6 7 1 18 9 14 7 27 -9 59 -52 102 -126 153
-230 159 l-67 5 62 -24 c62 -24 152 -77 173 -102 15 -18 -47 -4 -115 26 -59
27 -180 36 -241 20 -25 -7 -57 -26 -79 -49 -35 -36 -36 -36 -25 -8 6 16 20 42
32 58 19 28 19 29 2 20 -47 -25 -94 -103 -94 -157 0 -23 -3 -25 -52 -26 -39 0
-48 -3 -33 -9 11 -5 33 -9 48 -9 50 -2 29 -33 -42 -62 -67 -28 -69 -45 -3 -30
44 9 102 49 126 87 12 18 25 24 52 24 l36 0 -6 43 -7 42 15 -32 c22 -48 44
-56 132 -43 41 5 77 10 79 10 5 0 20 72 17 83 -6 23 101 -16 127 -47 15 -18
16 -18 -19 -33 l-25 -12 25 0 24 -1 -23 -17 c-30 -21 -122 -43 -181 -43 -69 0
-81 -16 -18 -24 46 -7 51 -9 36 -20 -41 -30 4 -84 60 -71 32 7 48 -6 54 -43
l3 -22 40 21 c48 25 99 72 127 117 32 51 31 32 -1 -48 l-30 -72 26 23 c65 60
85 199 43 298 -21 47 -89 122 -150 163 l-25 17 27 0 c15 1 30 -3 33 -9 9 -15
62 -12 95 5 35 18 39 29 8 20 -19 -6 -21 -5 -10 6 17 18 15 34 -3 19 -12 -10
-15 -10 -15 3 0 10 -22 23 -62 36 -35 12 -108 49 -163 82 -84 51 -105 60 -135
56 -19 -3 -29 -3 -22 0 12 5 7 24 -6 22 -4 -1 -27 -5 -52 -9z m80 -450 c0 -13
-7 -20 -19 -20 -22 0 -36 26 -18 34 25 10 37 5 37 -14z"/>
<path d="M3427 5680 c-33 -10 -84 -35 -115 -56 -32 -20 -51 -30 -43 -21 7 9 9
17 4 17 -20 0 -102 -60 -127 -93 -30 -39 -49 -40 -100 -4 -26 18 -29 19 -38 4
-6 -13 -23 -17 -61 -17 l-52 0 32 -20 c37 -22 53 -48 53 -84 0 -31 2 -30 -43
-11 -46 19 -57 19 -30 0 12 -9 36 -42 54 -75 17 -33 56 -82 85 -109 41 -38 54
-57 54 -78 0 -16 7 -38 15 -50 18 -25 99 -58 170 -67 l50 -7 -30 19 c-37 23
-60 56 -73 105 -9 33 -8 37 14 52 14 9 22 20 19 26 -9 13 4 69 16 69 5 0 9 -9
9 -19 0 -43 10 -51 54 -45 23 4 58 2 78 -4 44 -12 109 1 133 28 9 10 17 32 17
49 1 17 4 31 7 31 11 0 101 -65 101 -73 0 -4 -12 -13 -27 -19 l-28 -12 40 -3
c70 -6 85 -12 144 -67 52 -48 101 -83 101 -73 0 15 -36 120 -52 151 -27 52
-103 132 -155 163 -38 22 -132 53 -158 52 -5 0 15 -9 45 -21 54 -21 160 -113
160 -139 0 -7 -9 -4 -22 9 -31 28 -115 69 -168 81 -66 15 -180 13 -232 -4 -46
-16 -123 -83 -133 -116 -7 -21 -25 -26 -25 -6 1 23 38 92 62 115 14 12 54 38
89 57 44 24 55 33 34 29 -63 -13 -141 -56 -182 -101 l-43 -45 -10 26 c-13 35
-13 83 0 91 6 3 10 1 10 -6 0 -7 15 1 33 19 40 38 86 58 157 67 30 4 102 22
160 42 115 38 186 41 248 9 47 -24 39 -4 -18 47 -27 25 -50 48 -50 51 0 3 13
0 30 -5 43 -16 87 -66 106 -121 8 -26 19 -48 23 -48 5 0 30 -20 57 -45 26 -25
49 -45 51 -45 9 0 1 55 -13 82 -11 22 -13 33 -5 41 38 38 -12 106 -92 128 -23
6 -73 24 -111 40 -83 35 -187 39 -279 9z m-3 -379 c3 -5 -1 -14 -9 -21 -12
-10 -18 -10 -30 0 -18 15 -11 30 15 30 10 0 21 -4 24 -9z"/>
<path d="M3948 5492 c2 -31 4 -76 4 -99 0 -24 2 -43 4 -43 1 0 8 24 14 54 8
40 8 66 0 95 -16 61 -27 57 -22 -7z"/>
<path d="M4058 5263 c-9 -42 -36 -83 -54 -83 -8 0 -14 -4 -14 -10 0 -13 26
-13 50 0 20 11 34 61 28 101 -3 21 -4 20 -10 -8z"/>
<path d="M4008 5050 c22 -21 43 -30 65 -30 l32 0 -50 30 c-65 39 -90 39 -47 0z"/>
<path d="M3575 5043 c-22 -8 -60 -21 -85 -27 l-45 -12 27 -18 c33 -21 94 -31
142 -22 33 6 96 49 96 65 0 8 -69 32 -86 30 -5 0 -27 -7 -49 -16z"/>
<path d="M1980 5039 c0 -5 11 -21 25 -34 20 -21 34 -25 77 -24 55 0 98 12 82
21 -41 24 -184 53 -184 37z"/>
<path d="M3925 5009 c9 -14 86 -69 97 -69 14 0 -21 59 -41 70 -26 13 -64 13
-56 -1z"/>
<path d="M3452 4935 c8 -8 181 -65 185 -61 2 2 -35 17 -83 35 -81 29 -114 38
-102 26z"/>
<path d="M1512 4908 c-10 -13 -37 -246 -30 -254 3 -2 10 37 16 86 18 130 38
162 92 145 22 -7 26 5 8 23 -16 16 -73 15 -86 0z"/>
<path d="M2450 4801 c0 -20 -87 -68 -158 -87 -89 -23 -133 -46 -169 -87 -35
-40 -153 -268 -178 -345 -21 -66 -14 -96 32 -138 40 -37 40 -43 -13 -124 -34
-53 -35 -54 -29 -20 l7 35 -18 -25 c-10 -14 -44 -53 -76 -88 -68 -73 -72 -96
-23 -116 25 -11 33 -19 29 -30 -5 -13 2 -16 34 -16 24 0 44 -6 49 -14 14 -23
50 -36 102 -36 41 0 57 6 95 35 48 36 53 37 35 4 -22 -41 -2 -39 59 5 64 47
70 49 51 14 -20 -38 0 -30 83 32 99 75 132 90 196 90 27 0 84 9 128 21 98 25
159 20 246 -21 34 -17 98 -38 141 -47 63 -13 77 -20 77 -35 0 -24 -18 -59 -39
-75 -24 -18 -89 -15 -146 6 -90 34 -169 44 -262 31 -101 -13 -151 -35 -160
-68 l-6 -24 -23 29 c-20 25 -23 26 -30 10 -9 -25 9 -82 45 -139 35 -55 79 -73
151 -60 45 8 45 8 20 21 -32 18 -102 72 -98 77 2 2 27 -8 56 -22 87 -42 182
-57 271 -44 94 14 249 54 307 79 50 23 59 44 52 126 -3 30 -3 55 -1 55 2 0 14
-6 26 -14 12 -8 40 -17 62 -21 44 -7 106 -44 145 -85 38 -40 121 -49 189 -19
28 12 51 25 51 29 0 4 -10 15 -21 26 -37 33 -67 89 -119 221 -28 70 -64 148
-80 174 -31 47 -97 90 -110 69 -4 -7 -13 -3 -25 10 -23 25 -102 76 -135 85
-18 6 -3 -13 50 -63 41 -38 72 -73 69 -76 -4 -4 -43 20 -87 53 -44 33 -94 67
-111 76 -31 16 -57 13 -46 -6 11 -17 -3 -9 -44 25 -40 34 -107 63 -118 53 -9
-9 -53 49 -53 70 0 32 -28 62 -63 65 -31 3 -32 3 -10 16 18 10 40 10 105 1
156 -21 172 -21 192 -7 55 42 -98 123 -197 104 -19 -4 -47 -18 -61 -31 -27
-25 -56 -33 -56 -16 0 5 14 33 32 60 17 28 28 54 25 58 -4 3 -40 -4 -81 -15
-92 -27 -122 -27 -177 -3 -24 11 -45 18 -47 16 -3 -2 12 -23 31 -46 20 -23 44
-64 52 -90 9 -27 30 -63 47 -79 25 -26 28 -33 17 -46 -27 -32 -47 -36 -95 -15
-34 16 -62 20 -120 17 -41 -1 -79 -7 -86 -14 -6 -6 -30 -9 -57 -6 -40 5 -54 1
-110 -33 -35 -21 -99 -72 -143 -113 -45 -43 -78 -68 -78 -59 0 29 57 105 118
158 51 45 66 66 93 130 37 90 56 123 125 216 58 79 78 114 70 123 -3 3 -6 0
-6 -7z m395 -403 c-35 -19 -38 -19 -54 -3 -15 16 -15 17 4 11 11 -3 31 0 45 8
14 7 29 11 34 8 5 -3 -8 -14 -29 -24z"/>
<path d="M3167 4792 c-22 -24 -22 -31 9 -122 21 -60 25 -88 20 -122 -8 -53
-37 -88 -71 -88 -18 0 -25 -5 -25 -19 0 -35 44 -58 137 -70 114 -14 170 -42
270 -136 45 -41 84 -75 87 -75 13 0 5 72 -10 102 -9 18 -49 66 -89 108 -69 72
-73 79 -84 144 -33 187 -177 352 -244 278z"/>
<path d="M1560 4776 c-5 -15 -10 -68 -10 -117 0 -63 -11 -144 -36 -272 -38
-189 -41 -232 -27 -357 l9 -75 19 35 c16 29 20 60 23 193 4 149 12 185 31 135
5 -13 11 75 15 221 5 166 4 247 -3 254 -7 7 -13 2 -21 -17z"/>
<path d="M4764 4722 c-77 -56 -144 -152 -130 -187 9 -24 63 -10 99 26 59 59
78 29 80 -125 2 -85 -2 -124 -17 -166 -24 -70 -36 -84 -36 -39 -1 57 -12 143
-21 161 -8 14 -18 16 -54 11 -33 -4 -50 -2 -63 9 -9 8 -25 18 -35 21 -16 6
-17 -1 -15 -86 3 -84 0 -99 -29 -174 -34 -86 -41 -137 -21 -149 7 -5 22 6 37
27 14 18 42 52 63 74 36 39 37 39 57 21 11 -10 27 -16 36 -13 24 10 18 -4 -30
-77 -25 -38 -45 -73 -45 -77 0 -15 64 -10 87 6 27 19 86 159 129 308 29 101
34 134 34 221 0 108 -16 184 -46 217 -23 25 -34 24 -80 -9z"/>
<path d="M2386 4624 c-3 -9 -6 -29 -6 -45 0 -23 7 -32 38 -47 58 -30 107 -34
134 -12 16 13 29 16 45 9 21 -8 23 -6 23 21 0 40 -37 65 -85 57 -19 -3 -37 -1
-40 4 -4 5 -21 9 -40 9 -19 0 -37 5 -40 10 -9 15 -22 12 -29 -6z"/>
<path d="M3430 4605 c0 -39 34 -118 85 -201 26 -42 69 -122 95 -179 61 -135
75 -155 106 -155 41 0 84 29 100 66 12 28 13 61 8 157 -4 82 -3 136 5 165 10
36 10 48 -3 66 -12 20 -26 24 -102 30 -65 5 -109 15 -174 41 -105 42 -120 43
-120 10z"/>
<path d="M4499 3973 c-1 -5 0 -24 1 -43 1 -27 -8 -47 -36 -85 -48 -62 -57
-131 -24 -183 28 -46 45 -49 105 -19 68 33 121 80 146 130 27 51 19 57 -13 10
-40 -61 -89 -103 -119 -103 -35 0 -79 44 -79 81 0 20 15 45 50 84 56 62 61 82
27 113 -23 21 -56 30 -58 15z"/>
<path d="M1510 3810 c0 -37 46 -80 85 -80 8 0 24 -10 36 -22 18 -19 21 -20 15
-5 -3 10 -6 35 -6 55 -1 30 -3 34 -11 20 -15 -27 -50 -22 -87 11 -17 17 -32
26 -32 21z"/>
<path d="M1836 3433 c53 -224 122 -330 436 -665 60 -65 106 -118 103 -118 -12
0 -164 108 -244 173 -83 68 -185 166 -226 217 l-27 35 27 -50 c92 -164 160
-237 610 -650 248 -227 326 -283 620 -447 161 -89 172 -97 200 -146 17 -28 33
-51 37 -52 3 0 31 24 60 53 56 54 298 225 298 210 0 -5 -72 -83 -160 -175
-134 -140 -160 -171 -160 -196 0 -24 20 -52 98 -139 98 -108 222 -256 254
-303 12 -18 19 -22 27 -14 7 6 62 112 124 235 119 235 198 425 291 699 31 90
58 166 60 168 2 1 25 -27 51 -63 26 -37 45 -68 43 -69 -1 -2 -24 -15 -49 -29
-118 -69 -172 -166 -138 -254 16 -44 76 -111 125 -139 36 -21 54 -25 88 -22
l43 5 -75 -231 c-144 -446 -185 -546 -272 -661 l-51 -67 27 -47 c82 -142 184
-250 286 -300 142 -72 143 -71 328 594 44 160 64 280 81 480 13 166 17 580 6
646 -7 41 -21 61 -108 155 -145 157 -217 252 -323 425 -51 84 -97 154 -103
156 -5 2 -15 -25 -22 -59 -20 -91 -25 -55 -7 42 9 45 16 96 15 114 l0 31 -12
-25 c-81 -180 -196 -420 -238 -497 -63 -114 -141 -198 -246 -267 -80 -52 -320
-172 -328 -164 -3 3 28 43 69 89 93 104 122 163 202 409 68 209 159 408 293
639 39 68 71 125 71 127 0 2 -46 -31 -103 -74 -138 -103 -170 -120 -193 -101
-23 19 -44 71 -45 111 0 26 -6 16 -26 -46 -22 -70 -32 -87 -86 -141 -51 -51
-77 -67 -143 -93 -150 -58 -239 -63 -479 -26 -55 8 -208 19 -341 22 -206 6
-244 10 -268 25 -18 12 -25 24 -22 35 8 25 -3 36 -60 65 -50 25 -222 171 -263
223 -11 14 -53 60 -91 101 -59 61 -69 69 -64 46z"/>
<path d="M1781 2965 c-17 -19 -37 -48 -45 -64 -30 -57 -176 -177 -396 -325
-63 -43 -117 -79 -119 -81 -10 -10 126 -388 201 -560 87 -199 390 -600 827
-1095 286 -324 485 -506 533 -487 9 3 52 78 96 166 l80 161 -253 252 c-139
139 -304 314 -367 388 -157 184 -488 599 -488 611 0 6 7 24 16 42 l17 31 27
-54 c55 -108 151 -190 224 -190 56 0 91 67 105 198 l6 63 45 -58 c84 -107 305
-337 559 -578 138 -132 255 -241 259 -242 4 -2 18 32 30 75 13 42 53 152 88
245 35 92 64 183 64 202 0 38 -5 42 -107 103 -35 20 -122 84 -195 142 -179
142 -658 541 -737 615 -71 67 -249 266 -349 393 -36 45 -71 82 -78 82 -7 0
-26 -16 -43 -35z"/>
<path d="M1303 1095 c-57 -17 -107 -58 -158 -129 -68 -95 -93 -179 -75 -247
20 -72 91 -98 182 -65 45 16 52 11 31 -20 -30 -47 9 -100 55 -75 50 27 54 130
8 197 l-26 39 85 3 c47 1 85 7 85 11 0 9 -209 22 -223 14 -4 -2 8 -23 28 -46
19 -22 35 -48 35 -57 0 -23 -65 -51 -131 -57 -53 -5 -56 -4 -83 28 -25 30 -28
39 -23 86 8 77 46 152 113 219 67 68 129 103 153 86 22 -14 17 -60 -10 -88
-17 -18 -19 -24 -7 -24 27 0 51 38 52 82 1 36 -2 42 -24 48 -14 4 -44 2 -67
-5z m45 -481 c-7 -16 -20 -29 -28 -29 -24 0 -23 39 1 70 22 27 23 27 32 8 6
-14 5 -30 -5 -49z"/>
<path d="M687 1047 c-25 -18 -62 -53 -81 -77 -34 -43 -74 -136 -63 -147 9 -8
27 7 27 23 0 66 156 242 187 211 2 -3 -24 -54 -58 -114 -35 -59 -73 -133 -86
-163 -21 -51 -30 -110 -17 -110 14 0 52 26 87 58 20 20 37 33 37 30 0 -4 -7
-39 -15 -79 -9 -40 -13 -74 -11 -76 11 -12 24 10 29 51 10 74 46 165 99 259
28 48 48 91 44 95 -9 9 -37 -28 -76 -100 -34 -64 -105 -161 -144 -197 l-26
-24 0 25 c0 14 36 98 81 186 44 89 78 166 74 171 -11 19 -40 12 -88 -22z"/>
<path d="M1572 800 c-40 -37 -19 -87 31 -75 19 5 25 2 30 -14 5 -19 11 -20
110 -16 58 2 114 8 126 14 14 8 22 8 27 0 3 -6 19 -9 35 -5 18 3 29 1 29 -6 0
-7 17 -9 50 -6 35 4 50 1 54 -9 3 -7 11 -13 18 -13 7 0 18 -10 23 -21 12 -26
31 -24 27 3 -2 11 4 30 12 44 19 28 3 33 -26 7 -17 -15 -18 -15 -18 1 0 10 5
26 10 37 16 29 -7 24 -47 -11 -52 -46 -102 -34 -73 19 15 28 -10 29 -35 1 -24
-27 -50 -27 -35 -1 22 42 4 42 -40 1 -29 -27 -60 -39 -60 -24 0 4 9 22 21 40
31 51 -1 45 -35 -6 -29 -45 -60 -53 -69 -18 l-6 22 -29 -27 c-15 -15 -31 -27
-35 -27 -11 0 -8 48 3 55 14 9 12 21 -6 39 -22 22 -66 20 -92 -4z m73 -20 c0
-15 -50 -38 -61 -28 -3 4 0 16 6 28 13 24 55 24 55 0z"/>
<path d="M885 710 c-3 -5 1 -10 9 -10 9 0 16 5 16 10 0 6 -4 10 -9 10 -6 0
-13 -4 -16 -10z"/>
</g>
</svg>
