<?xml version="1.0" standalone="no"?>
<!DOCTYPE svg PUBLIC "-//W3C//DTD SVG 20010904//EN"
 "http://www.w3.org/TR/2001/REC-SVG-20010904/DTD/svg10.dtd">
<svg version="1.0" xmlns="http://www.w3.org/2000/svg"
 width="1113.000000pt" height="1280.000000pt" viewBox="0 0 1113.000000 1280.000000"
 preserveAspectRatio="xMidYMid meet">

<g transform="translate(0.000000,1280.000000) scale(0.100000,-0.100000)"
fill="#3a3a3c" stroke="none">
<path d="M5559 12625 c-30 -94 -167 -523 -304 -954 l-250 -783 -1005 7 -1005
7 136 -99 c75 -54 441 -316 812 -583 372 -267 676 -490 676 -495 1 -6 -140
-434 -313 -953 -173 -518 -312 -942 -310 -942 3 0 367 266 809 591 l805 590
247 -182 c1090 -805 1356 -999 1359 -996 3 3 -154 486 -523 1601 -94 285 -95
290 -76 305 11 9 376 270 811 581 435 311 791 567 791 570 1 3 -448 3 -996 0
-549 -3 -999 -5 -1000 -5 0 0 -134 421 -297 935 -163 514 -300 944 -305 955
-6 15 -21 -20 -62 -150z m211 -1280 c83 -264 170 -540 193 -612 l42 -133 652
-2 653 -3 -529 -380 c-291 -208 -528 -382 -527 -385 5 -8 406 -1227 406 -1234
0 -4 -280 201 -914 670 l-140 103 -45 -33 c-25 -19 -262 -192 -525 -385 -264
-193 -481 -350 -482 -348 -2 2 73 232 166 512 92 281 184 558 203 618 l35 107
-529 381 c-291 209 -529 382 -529 385 0 2 294 1 654 -3 l654 -6 34 109 c173
551 364 1132 369 1126 4 -4 75 -223 159 -487z"/>
<path d="M8439 9052 c11 -21 40 -55 65 -75 59 -49 214 -235 327 -394 195 -273
442 -537 737 -788 149 -127 215 -175 226 -165 6 7 -130 417 -171 515 -42 100
-154 286 -234 386 -132 166 -320 299 -584 414 -118 52 -360 145 -376 145 -5 0
-1 -17 10 -38z"/>
<path d="M2480 9001 c-104 -34 -510 -247 -601 -315 -117 -88 -219 -200 -317
-345 -103 -153 -126 -198 -158 -313 -14 -51 -50 -170 -80 -265 -30 -94 -54
-174 -54 -177 0 -14 29 -4 62 22 257 200 549 477 655 622 38 52 134 185 213
294 79 109 191 249 248 310 57 61 117 128 134 149 l30 37 -39 -1 c-21 0 -63
-8 -93 -18z"/>
<path d="M9515 8529 c155 -167 173 -189 209 -263 45 -93 70 -163 95 -266 11
-41 60 -225 110 -409 51 -183 89 -336 86 -340 -4 -3 -61 51 -128 120 -67 70
-142 142 -167 161 -47 35 -293 214 -453 328 -82 58 -104 82 -200 210 l-109
144 7 -59 c18 -142 97 -363 174 -482 98 -151 288 -348 483 -499 319 -247 544
-468 628 -616 17 -32 36 -58 42 -58 7 0 8 194 5 578 -5 655 -8 680 -86 847
-142 304 -463 599 -697 640 l-39 7 40 -43z"/>
<path d="M1449 8470 c-107 -43 -235 -134 -344 -245 -201 -203 -274 -349 -324
-650 -31 -186 -34 -299 -16 -490 9 -93 19 -279 22 -413 4 -170 9 -242 17 -239
6 2 26 30 44 63 86 153 254 331 492 521 317 253 525 489 646 734 72 144 130
338 106 353 -18 11 -39 -4 -73 -52 -84 -120 -167 -195 -489 -447 -299 -233
-432 -367 -498 -502 -15 -29 -29 -53 -34 -53 -8 0 -1 22 72 255 28 88 63 214
79 280 16 66 44 181 61 255 45 187 74 271 127 369 55 104 110 177 163 220 71
56 42 79 -51 41z"/>
<path d="M10340 7830 c0 -11 13 -46 29 -78 43 -86 81 -217 88 -301 3 -42 0
-224 -6 -406 -6 -181 -14 -493 -17 -692 -4 -200 -10 -363 -14 -363 -4 0 -13
25 -19 57 -17 76 -62 183 -107 257 -77 126 -147 201 -484 522 -137 130 -310
311 -310 325 0 4 -10 13 -21 20 -22 11 -22 11 -15 -53 3 -35 14 -93 25 -128
28 -99 119 -336 158 -414 46 -91 163 -266 326 -485 281 -379 381 -555 472
-831 15 -47 30 -89 33 -93 14 -25 75 164 153 473 33 135 79 292 100 349 126
335 127 844 3 1226 -58 177 -196 425 -318 568 -60 70 -76 80 -76 47z"/>
<path d="M5555 7789 c22 -22 121 -102 220 -177 361 -273 520 -407 753 -636
338 -333 506 -565 676 -932 109 -234 148 -393 166 -665 19 -274 -15 -636 -76
-831 -36 -115 -186 -407 -238 -465 -41 -44 -45 -47 -67 -35 -26 14 -74 59
-720 667 -1120 1054 -1366 1290 -1374 1316 -10 30 21 66 337 386 158 161 288
297 288 303 0 18 -48 30 -275 71 -121 21 -287 52 -370 68 l-149 30 -43 -35
c-158 -130 -1143 -1099 -1143 -1125 0 -8 110 -127 244 -265 l243 -249 267 263
c146 144 271 262 278 262 17 0 421 -408 1098 -1110 876 -907 860 -890 847
-923 -5 -14 -116 -56 -197 -75 -142 -33 -582 -40 -799 -12 -184 24 -565 138
-826 247 -71 30 -236 106 -365 169 -129 63 -245 114 -257 114 -16 0 -49 -31
-113 -104 -50 -57 -98 -107 -106 -110 -9 -3 -48 -6 -87 -6 -81 0 -128 -18
-161 -63 -22 -30 -24 -64 -11 -184 10 -95 3 -105 -143 -200 -248 -161 -279
-183 -354 -247 -100 -87 -187 -195 -239 -301 -37 -75 -43 -96 -47 -168 -5 -95
13 -144 68 -191 41 -34 67 -40 148 -34 106 8 236 83 355 205 103 106 172 215
310 488 83 164 111 189 226 200 142 13 171 47 171 201 0 69 4 106 14 119 13
18 15 18 57 -4 24 -13 104 -69 179 -125 389 -295 737 -480 1145 -610 393 -125
840 -157 1190 -85 117 23 298 83 405 133 l75 34 236 -242 c250 -256 330 -326
371 -326 52 0 151 61 233 144 90 91 135 167 135 230 0 40 -4 46 -255 292 -140
137 -255 254 -255 258 0 5 23 34 52 65 69 75 168 229 244 378 69 137 157 390
173 501 42 278 50 501 26 742 -54 561 -199 949 -496 1332 -378 486 -685 731
-1314 1048 -249 126 -435 204 -642 269 -72 22 -135 41 -139 41 -4 0 10 -18 31
-41z"/>
<path d="M659 7718 c-62 -67 -120 -161 -223 -359 -123 -239 -141 -309 -167
-619 -17 -218 -2 -430 46 -620 14 -52 68 -216 121 -365 58 -163 114 -344 142
-457 26 -104 50 -188 53 -188 4 0 26 57 49 128 52 156 85 230 152 341 60 101
378 579 464 698 126 176 271 518 304 716 9 56 4 97 -11 97 -4 0 -45 -45 -90
-100 -51 -62 -118 -129 -178 -177 -129 -103 -312 -288 -393 -396 -121 -163
-204 -330 -240 -484 -42 -183 -46 -158 -22 155 18 240 12 373 -37 762 -49 399
-34 605 61 829 17 38 30 72 30 75 0 17 -25 1 -61 -36z"/>
<path d="M10957 6330 c-3 -30 -11 -109 -17 -175 -23 -252 -99 -529 -221 -802
-131 -294 -205 -508 -244 -705 -10 -49 -21 -88 -26 -88 -9 0 -16 60 -24 210
-9 150 -26 220 -90 371 -74 174 -97 217 -160 314 -121 183 -316 546 -330 613
-4 17 -12 32 -19 32 -106 0 33 -783 269 -1520 87 -270 87 -274 92 -573 4 -241
7 -268 21 -265 9 2 48 47 87 100 38 53 153 208 255 345 308 413 353 487 420
682 129 379 166 848 94 1211 -18 92 -71 262 -89 286 -11 16 -14 12 -18 -36z"/>
<path d="M112 6273 c-34 -62 -97 -409 -109 -604 -9 -160 23 -463 67 -631 33
-128 89 -276 160 -423 103 -216 200 -363 350 -530 87 -97 223 -277 274 -362
67 -112 71 -97 81 247 7 232 28 379 74 515 33 99 142 482 190 667 17 65 37
173 46 240 8 68 22 159 31 203 18 94 32 485 17 485 -15 0 -66 -76 -132 -200
-132 -244 -359 -742 -412 -903 -49 -145 -58 -216 -59 -429 0 -234 -10 -227
-59 42 -42 231 -83 362 -176 560 -117 249 -227 526 -266 665 -10 38 -26 140
-35 225 -8 85 -18 178 -22 205 -7 46 -8 48 -20 28z"/>
<path d="M9856 4849 c-47 -109 -126 -402 -150 -559 -26 -171 -65 -540 -81
-765 -29 -397 -111 -784 -210 -980 -42 -83 -53 -115 -40 -115 19 0 623 392
845 549 140 98 347 291 466 436 206 250 336 508 394 787 48 229 63 507 31 567
-18 33 -30 16 -42 -58 -5 -35 -23 -100 -38 -145 -79 -227 -127 -292 -526 -721
-266 -285 -334 -364 -406 -473 -83 -122 -239 -342 -244 -342 -3 0 12 35 34 78
59 118 89 211 117 365 23 126 26 159 21 302 -4 134 -12 200 -50 405 -60 325
-67 375 -76 556 -4 85 -11 157 -14 160 -4 4 -17 -17 -31 -47z"/>
<path d="M1225 4678 c-9 -105 -51 -355 -80 -483 -36 -159 -45 -253 -45 -500 0
-327 24 -455 116 -619 24 -43 44 -83 44 -90 -1 -18 -57 53 -117 149 -110 175
-217 301 -612 722 -135 144 -264 289 -286 322 -116 177 -167 286 -196 415 -36
161 -55 104 -46 -131 13 -318 50 -490 151 -697 134 -278 255 -438 495 -650
113 -101 404 -314 628 -460 470 -307 483 -315 483 -283 0 7 -32 84 -70 171
-114 254 -158 474 -205 1021 -45 514 -130 984 -206 1143 -31 63 -46 55 -54
-30z"/>
<path d="M9408 3639 c-324 -448 -382 -565 -585 -1164 -142 -421 -250 -628
-436 -837 -48 -53 -87 -100 -87 -103 0 -11 69 -4 111 11 80 28 286 74 475 104
426 70 645 149 923 335 458 305 732 634 875 1052 48 141 79 263 66 263 -5 0
-30 -37 -56 -82 -62 -110 -121 -182 -246 -304 -118 -116 -231 -207 -321 -260
-34 -20 -195 -105 -357 -189 -425 -219 -638 -352 -833 -520 -49 -42 -91 -75
-93 -73 -2 3 20 31 49 64 138 155 213 265 292 429 87 182 110 268 180 680 52
307 85 461 120 566 29 83 32 129 10 129 -8 0 -47 -45 -87 -101z"/>
<path d="M1600 3656 c0 -8 16 -68 36 -133 42 -136 111 -459 125 -583 16 -135
36 -239 74 -371 50 -173 95 -281 170 -406 55 -92 85 -127 198 -236 126 -123
129 -127 67 -86 -36 23 -96 66 -135 94 -38 29 -155 109 -260 179 -155 104
-240 152 -465 262 -292 144 -381 192 -525 288 -194 128 -330 266 -449 454 -32
51 -61 90 -64 88 -10 -11 22 -146 56 -231 112 -289 267 -521 495 -742 230
-223 434 -361 687 -466 163 -67 250 -90 551 -142 112 -20 272 -51 354 -70 210
-48 294 -60 309 -45 8 10 7 14 -4 18 -8 2 -40 30 -70 61 -148 151 -325 472
-430 776 -34 99 -75 217 -90 262 -87 248 -220 523 -327 675 -55 79 -221 303
-264 356 -13 17 -39 15 -39 -2z"/>
<path d="M8656 2529 c-95 -63 -375 -312 -683 -606 -309 -294 -433 -394 -624
-497 -116 -62 -226 -101 -367 -130 -172 -34 -163 -53 43 -80 66 -9 190 -34
275 -55 165 -42 539 -123 655 -141 502 -80 838 -40 1206 144 288 145 556 384
703 629 51 84 70 127 58 127 -4 0 -64 -50 -132 -111 -113 -100 -138 -117 -266
-179 -209 -103 -347 -135 -794 -185 -124 -14 -351 -41 -505 -60 -309 -38 -505
-58 -512 -51 -2 2 26 14 62 26 86 29 252 114 337 174 84 59 116 96 230 266 86
130 145 242 248 472 27 58 64 131 84 161 35 56 76 132 76 142 0 13 -24 2 -94
-46z"/>
<path d="M2360 2532 c0 -5 32 -62 71 -128 39 -65 118 -209 177 -319 122 -232
202 -363 278 -456 101 -124 276 -239 439 -288 140 -42 116 -53 -61 -26 -146
22 -493 57 -889 90 -308 25 -466 55 -642 121 -171 64 -258 114 -407 233 -82
66 -116 84 -116 62 0 -5 35 -57 77 -117 87 -123 256 -298 383 -396 221 -171
486 -292 745 -340 47 -9 156 -13 335 -12 354 1 477 20 970 149 91 24 252 63
358 87 116 25 186 45 175 49 -10 4 -74 25 -143 47 -185 59 -404 148 -492 199
-90 52 -169 120 -443 379 -338 319 -489 454 -645 575 -107 83 -170 117 -170
91z"/>
<path d="M6055 1264 c-113 -9 -279 -36 -361 -60 -111 -32 -150 -32 -247 1
-108 36 -272 49 -522 41 -221 -6 -330 -21 -480 -65 -199 -58 -525 -182 -808
-305 -292 -128 -592 -187 -839 -165 -184 16 -314 50 -505 135 -160 71 -167 71
-107 -3 92 -112 298 -258 507 -358 161 -77 226 -98 387 -124 209 -34 279 -36
420 -12 369 63 524 131 962 423 148 99 301 196 340 218 108 57 248 101 344
107 92 6 157 -2 151 -20 -2 -6 -72 -49 -157 -94 -301 -163 -466 -276 -765
-527 -129 -109 -275 -249 -275 -264 0 -20 149 -149 208 -181 29 -15 37 -10
139 104 171 191 491 486 623 575 36 24 100 70 143 102 43 32 109 74 145 95 37
20 87 49 111 65 51 32 85 35 162 12 182 -54 515 -305 899 -677 242 -236 291
-275 323 -259 35 16 113 89 152 142 45 61 44 63 -73 167 -249 223 -628 492
-891 633 -173 93 -191 104 -170 113 42 16 202 21 260 7 113 -26 279 -116 477
-258 150 -108 393 -252 517 -306 217 -95 408 -136 665 -143 280 -8 466 32 692
149 179 92 391 246 491 356 71 80 48 81 -104 6 -222 -109 -343 -134 -644 -134
-209 0 -347 16 -491 55 -93 25 -230 77 -306 116 -24 12 -158 68 -299 124 -256
102 -479 170 -644 194 -78 11 -352 21 -430 15z"/>
</g>
</svg>
